<?xml version="1.0" encoding="UTF-8" standalone="no"?>
<svg
   xmlns:dc="http://purl.org/dc/elements/1.1/"
   xmlns:cc="http://creativecommons.org/ns#"
   xmlns:rdf="http://www.w3.org/1999/02/22-rdf-syntax-ns#"
   xmlns:svg="http://www.w3.org/2000/svg"
   xmlns="http://www.w3.org/2000/svg"
   viewBox="0 0 16 16"
   version="1.1"
   id="svg10">
  <metadata
     id="metadata16">
    <rdf:RDF>
      <cc:Work
         rdf:about="">
        <dc:format>image/svg+xml</dc:format>
        <dc:type
           rdf:resource="http://purl.org/dc/dcmitype/StillImage" />
        <dc:title></dc:title>
      </cc:Work>
    </rdf:RDF>
  </metadata>
  <defs
     id="defs14" />
  <path
     fill="#EFEFEF"
     d="M2 0v16h12V4l-4-4H2z"
     id="path2" />
  <path
     opacity=".65"
     fill="#FFF"
     d="M10 4V0l4 4h-4z"
     id="path4" />
  <path
     style="fill:#c0392b;fill-opacity:1"
     fill="#999"
     d="M2 0v16h12V4l-4-4H2zm1 1h6v4h4v10H3V1zm7 .4L12.6 4H10V1.4z"
     id="path8" />
  <path
     opacity=".2"
     d="M13 5v5L9 5h4z"
     id="path6" />
  <rect
     y="7.3457398"
     x="1.3875276"
     height="6.971261"
     width="12.948022"
     id="rect4676"
     style="opacity:1;fill:#ffffff;fill-opacity:1;stroke:none;stroke-width:0.73761243;stroke-miterlimit:4;stroke-dasharray:none;stroke-opacity:1" />
  <g
     transform="matrix(0.54899335,0,0,0.54899335,-9.7103457,28.507664)"
     style="font-style:normal;font-variant:normal;font-weight:bold;font-stretch:normal;font-size:16px;line-height:1000%;font-family:Share-Bold;-inkscape-font-specification:'Share-Bold Bold';letter-spacing:0px;word-spacing:0px;fill:#010101;fill-opacity:1;stroke:none;stroke-width:1px;stroke-linecap:butt;stroke-linejoin:miter;stroke-opacity:1"
     id="text4152">
    <path
       style="fill:#010101;fill-opacity:1"
       d="m 25.11275,-28.896 v 2.496 h -2.16 v -2.496 h -3.088 v -2.016 l 1.504,-6.688 h 2.064 l -1.536,6.896 h 1.056 l 0.352,-3.008 h 1.808 v 3.008 h 0.96 v 1.808 z"
       id="path4159" />
    <path
       style="fill:#010101;fill-opacity:1"
       d="m 32.928,-32.048 q 0,-1.248 -0.032,-2.016 -0.016,-0.768 -0.128,-1.184 -0.112,-0.432 -0.336,-0.576 -0.208,-0.144 -0.576,-0.144 -0.368,0 -0.592,0.144 -0.208,0.144 -0.32,0.576 -0.096,0.416 -0.128,1.184 -0.032,0.768 -0.032,2.016 0,1.28 0.032,2.064 0.032,0.784 0.128,1.216 0.112,0.432 0.32,0.592 0.224,0.144 0.592,0.144 0.368,0 0.576,-0.144 0.224,-0.16 0.336,-0.592 0.112,-0.432 0.128,-1.216 0.032,-0.784 0.032,-2.064 z m 2.128,-0.08 q 0,1.472 -0.112,2.576 -0.112,1.104 -0.464,1.84 -0.336,0.72 -0.976,1.088 -0.624,0.368 -1.648,0.368 -1.024,0 -1.664,-0.368 -0.624,-0.368 -0.976,-1.088 -0.336,-0.736 -0.448,-1.84 -0.112,-1.104 -0.112,-2.576 0,-1.408 0.096,-2.464 0.112,-1.056 0.448,-1.744 0.336,-0.704 0.96,-1.056 0.64,-0.352 1.696,-0.352 1.056,0 1.68,0.352 0.64,0.352 0.976,1.056 0.336,0.688 0.432,1.744 0.112,1.056 0.112,2.464 z"
       id="path4161" />
    <path
       style="fill:#010101;fill-opacity:1"
       d="m 43.175251,-28.896 v 2.496 h -2.16 v -2.496 h -3.088 v -2.016 l 1.504,-6.688 h 2.064 l -1.536,6.896 h 1.056 l 0.352,-3.008 h 1.808 v 3.008 h 0.96 v 1.808 z"
       id="path4163" />
  </g>
</svg>
