<?xml version="1.0" encoding="UTF-8" standalone="no"?>
<svg
   xmlns:dc="http://purl.org/dc/elements/1.1/"
   xmlns:cc="http://creativecommons.org/ns#"
   xmlns:rdf="http://www.w3.org/1999/02/22-rdf-syntax-ns#"
   xmlns:svg="http://www.w3.org/2000/svg"
   xmlns="http://www.w3.org/2000/svg"
   id="svg10"
   version="1.1"
   viewBox="0 0 16 16">
  <metadata
     id="metadata16">
    <rdf:RDF>
      <cc:Work
         rdf:about="">
        <dc:format>image/svg+xml</dc:format>
        <dc:type
           rdf:resource="http://purl.org/dc/dcmitype/StillImage" />
        <dc:title></dc:title>
      </cc:Work>
    </rdf:RDF>
  </metadata>
  <defs
     id="defs14" />
  <g
     transform="matrix(0.91865689,0,0,0.91865689,-29.881966,-1.0677255)"
     id="g861">
    <path
       id="path18"
       style="fill:#c0392b;fill-opacity:1;fill-rule:nonzero;stroke:none;stroke-width:0.33970281"
       d="m 38.978358,18.191521 c -0.653785,0 -1.566982,-0.378283 -2.029306,-0.840608 L 33.755971,14.157832 C 33.293646,13.695508 32.915363,12.78231 32.915363,12.128526 V 7.612741 c 0,-0.6537839 0.378283,-1.5669815 0.840608,-2.0293059 L 36.949052,2.390354 c 0.462324,-0.4623244 1.375521,-0.8406079 2.029306,-0.8406079 h 4.515785 c 0.653784,0 1.566981,0.3782835 2.029306,0.8406079 l 3.193081,3.1930811 c 0.462324,0.4623244 0.840608,1.375522 0.840608,2.0293059 v 4.515785 c 0,0.653784 -0.378284,1.566982 -0.840608,2.029306 l -3.193081,3.193081 c -0.462325,0.462325 -1.375522,0.840608 -2.029306,0.840608 h -4.515785" />
    <path
       id="path20-3"
       style="fill:#ffffff;fill-opacity:1;fill-rule:nonzero;stroke:none;stroke-width:0.33970281"
       d="m 47.528963,10.873528 c 0,1.107697 -0.866942,2.005788 -1.936219,2.005788 h -8.712987 c -1.069278,0 -1.93622,-0.898091 -1.93622,-2.005788 V 8.8677394 c 0,-1.1076965 0.866942,-2.0057882 1.93622,-2.0057882 h 8.712987 c 1.069277,0 1.936219,0.8980917 1.936219,2.0057882 v 2.0057886" />
    <g
       transform="matrix(0.39623273,0,0,0.39623273,28.556803,22.550081)"
       style="font-style:normal;font-variant:normal;font-weight:bold;font-stretch:normal;font-size:16px;line-height:1000%;font-family:Share-Bold;-inkscape-font-specification:'Share-Bold Bold';letter-spacing:0px;word-spacing:0px;fill:#000000;fill-opacity:1;stroke:none;stroke-width:1px;stroke-linecap:butt;stroke-linejoin:miter;stroke-opacity:1"
       id="text4152-6">
      <path
         d="m 25.11275,-28.896 v 2.496 h -2.16 v -2.496 h -3.088 v -2.016 l 1.504,-6.688 h 2.064 l -1.536,6.896 h 1.056 l 0.352,-3.008 h 1.808 v 3.008 h 0.96 v 1.808 z"
         id="path4159-7" />
      <path
         d="m 32.928,-32.048 q 0,-1.248 -0.032,-2.016 -0.016,-0.768 -0.128,-1.184 -0.112,-0.432 -0.336,-0.576 -0.208,-0.144 -0.576,-0.144 -0.368,0 -0.592,0.144 -0.208,0.144 -0.32,0.576 -0.096,0.416 -0.128,1.184 -0.032,0.768 -0.032,2.016 0,1.28 0.032,2.064 0.032,0.784 0.128,1.216 0.112,0.432 0.32,0.592 0.224,0.144 0.592,0.144 0.368,0 0.576,-0.144 0.224,-0.16 0.336,-0.592 0.112,-0.432 0.128,-1.216 0.032,-0.784 0.032,-2.064 z m 2.128,-0.08 q 0,1.472 -0.112,2.576 -0.112,1.104 -0.464,1.84 -0.336,0.72 -0.976,1.088 -0.624,0.368 -1.648,0.368 -1.024,0 -1.664,-0.368 -0.624,-0.368 -0.976,-1.088 -0.336,-0.736 -0.448,-1.84 -0.112,-1.104 -0.112,-2.576 0,-1.408 0.096,-2.464 0.112,-1.056 0.448,-1.744 0.336,-0.704 0.96,-1.056 0.64,-0.352 1.696,-0.352 1.056,0 1.68,0.352 0.64,0.352 0.976,1.056 0.336,0.688 0.432,1.744 0.112,1.056 0.112,2.464 z"
         id="path4161-5" />
      <path
         d="m 43.175251,-28.896 v 2.496 h -2.16 v -2.496 h -3.088 v -2.016 l 1.504,-6.688 h 2.064 l -1.536,6.896 h 1.056 l 0.352,-3.008 h 1.808 v 3.008 h 0.96 v 1.808 z"
         id="path4163-3" />
    </g>
  </g>
</svg>
