<?xml version="1.0" encoding="UTF-8" standalone="no"?>
<!-- Created with Inkscape (http://www.inkscape.org/) -->

<svg
   xmlns:dc="http://purl.org/dc/elements/1.1/"
   xmlns:cc="http://creativecommons.org/ns#"
   xmlns:rdf="http://www.w3.org/1999/02/22-rdf-syntax-ns#"
   xmlns:svg="http://www.w3.org/2000/svg"
   xmlns="http://www.w3.org/2000/svg"
   xmlns:sodipodi="http://sodipodi.sourceforge.net/DTD/sodipodi-0.dtd"
   xmlns:inkscape="http://www.inkscape.org/namespaces/inkscape"
   id="svg2"
   version="1.1"
   inkscape:version="0.91 r13725"
   xml:space="preserve"
   width="80"
   height="80"
   viewBox="0 0 80 80"
   sodipodi:docname="Extension.svg"><metadata
     id="metadata8"><rdf:RDF><cc:Work
         rdf:about=""><dc:format>image/svg+xml</dc:format><dc:type
           rdf:resource="http://purl.org/dc/dcmitype/StillImage" /><dc:title></dc:title></cc:Work></rdf:RDF></metadata><defs
     id="defs6" /><sodipodi:namedview
     pagecolor="#ffffff"
     bordercolor="#666666"
     borderopacity="1"
     objecttolerance="10"
     gridtolerance="10"
     guidetolerance="10"
     inkscape:pageopacity="0"
     inkscape:pageshadow="2"
     inkscape:window-width="1904"
     inkscape:window-height="2093"
     id="namedview4"
     showgrid="false"
     inkscape:zoom="5.9"
     inkscape:cx="22.91315"
     inkscape:cy="33.074247"
     inkscape:window-x="3520"
     inkscape:window-y="0"
     inkscape:window-maximized="0"
     inkscape:current-layer="g10" /><g
     id="g10"
     inkscape:groupmode="layer"
     inkscape:label="ink_ext_XXXXXX"
     transform="matrix(1.25,0,0,-1.25,0,80)"><rect
       style="opacity:0.98999999;fill:#1364ab;fill-opacity:0.66666667;stroke:none;stroke-width:2.07999992;stroke-miterlimit:4;stroke-dasharray:none;stroke-opacity:1"
       id="rect4156"
       width="64.406784"
       height="64"
       x="0"
       y="-64"
       transform="scale(1,-1)" /><path
       inkscape:connector-curvature="0"
       id="path16"
       style="fill:#404a5f;fill-opacity:1;fill-rule:nonzero;stroke:none"
       d="m 38.64667,4.7389822 -13.29334,0 c -1.924577,0 -4.612801,1.1135599 -5.973768,2.4745386 L 9.9799307,16.613152 C 8.6189636,17.974119 7.5053921,20.662344 7.5053921,22.58692 l 0,13.29334 c 0,1.924577 1.1135715,4.612802 2.4745386,5.973769 l 9.3996313,9.39963 c 1.360967,1.360967 4.049191,2.474539 5.973768,2.474539 l 13.29334,0 c 1.924577,0 4.612801,-1.113572 5.973768,-2.474539 l 9.399631,-9.39963 c 1.360967,-1.360967 2.474539,-4.049192 2.474539,-5.973769 l 0,-13.29334 c 0,-1.924576 -1.113572,-4.612801 -2.474539,-5.973768 L 44.620438,7.2135208 C 43.259471,5.8525421 40.571247,4.7389822 38.64667,4.7389822" /><path
       inkscape:connector-curvature="0"
       id="path18"
       style="fill:#c0392b;fill-opacity:1;fill-rule:nonzero;stroke:none"
       d="m 25.35333,7.071802 c -1.924577,0 -4.612801,1.1135715 -5.973768,2.474539 l -9.3996313,9.39963 C 8.6189636,20.306938 7.5053921,22.995163 7.5053921,24.91974 l 0,13.29334 c 0,1.924576 1.1135715,4.612801 2.4745386,5.973768 l 9.3996313,9.399631 c 1.360967,1.360967 4.049191,2.474539 5.973768,2.474539 l 13.29334,0 c 1.924577,0 4.612801,-1.113572 5.973768,-2.474539 l 9.399631,-9.399631 c 1.360967,-1.360967 2.474539,-4.049192 2.474539,-5.973768 l 0,-13.29334 c 0,-1.924577 -1.113572,-4.612802 -2.474539,-5.973769 L 44.620438,9.546341 C 43.259471,8.1853735 40.571247,7.071802 38.64667,7.071802 l -13.29334,0" /><path
       inkscape:connector-curvature="0"
       id="path20"
       style="fill:#ffffff;fill-opacity:1;fill-rule:nonzero;stroke:none"
       d="m 50.524171,28.61414 c 0,-3.260782 -2.552061,-5.904537 -5.699745,-5.904537 l -25.648852,0 c -3.147684,0 -5.699745,2.643755 -5.699745,5.904537 l 0,5.904539 c 0,3.260781 2.552061,5.904538 5.699745,5.904538 l 25.648852,0 c 3.147684,0 5.699745,-2.643757 5.699745,-5.904538 l 0,-5.904539" /><g
       transform="matrix(1.1664099,0,0,-1.1664099,-5.3251168,-5.7587069)"
       style="font-style:normal;font-variant:normal;font-weight:bold;font-stretch:normal;font-size:16px;line-height:1000%;font-family:Share-Bold;-inkscape-font-specification:'Share-Bold Bold';letter-spacing:0px;word-spacing:0px;fill:#000000;fill-opacity:1;stroke:none;stroke-width:1px;stroke-linecap:butt;stroke-linejoin:miter;stroke-opacity:1"
       id="text4152"><path
         inkscape:connector-curvature="0"
         d="m 25.11275,-28.896 0,2.496 -2.16,0 0,-2.496 -3.088,0 0,-2.016 1.504,-6.688 2.064,0 -1.536,6.896 1.056,0 0.352,-3.008 1.808,0 0,3.008 0.96,0 0,1.808 -0.96,0 z"
         id="path4159" /><path
         inkscape:connector-curvature="0"
         d="m 32.928,-32.048 q 0,-1.248 -0.032,-2.016 -0.016,-0.768 -0.128,-1.184 -0.112,-0.432 -0.336,-0.576 -0.208,-0.144 -0.576,-0.144 -0.368,0 -0.592,0.144 -0.208,0.144 -0.32,0.576 -0.096,0.416 -0.128,1.184 -0.032,0.768 -0.032,2.016 0,1.28 0.032,2.064 0.032,0.784 0.128,1.216 0.112,0.432 0.32,0.592 0.224,0.144 0.592,0.144 0.368,0 0.576,-0.144 0.224,-0.16 0.336,-0.592 0.112,-0.432 0.128,-1.216 0.032,-0.784 0.032,-2.064 z m 2.128,-0.08 q 0,1.472 -0.112,2.576 -0.112,1.104 -0.464,1.84 -0.336,0.72 -0.976,1.088 -0.624,0.368 -1.648,0.368 -1.024,0 -1.664,-0.368 -0.624,-0.368 -0.976,-1.088 -0.336,-0.736 -0.448,-1.84 -0.112,-1.104 -0.112,-2.576 0,-1.408 0.096,-2.464 0.112,-1.056 0.448,-1.744 0.336,-0.704 0.96,-1.056 0.64,-0.352 1.696,-0.352 1.056,0 1.68,0.352 0.64,0.352 0.976,1.056 0.336,0.688 0.432,1.744 0.112,1.056 0.112,2.464 z"
         id="path4161" /><path
         inkscape:connector-curvature="0"
         d="m 43.175251,-28.896 0,2.496 -2.16,0 0,-2.496 -3.088,0 0,-2.016 1.504,-6.688 2.064,0 -1.536,6.896 1.056,0 0.352,-3.008 1.808,0 0,3.008 0.96,0 0,1.808 -0.96,0 z"
         id="path4163" /></g></g></svg>